# xmcd
#
# Track frame offsets:
#	150
#	21687
#	40462
#	58505
#	77167
#	98547
#	119612
#	136932
#	154405
#	181450
#	197770
#	216307
#	236277
#	260207
#	281555
#
# Disc length: 3967 seconds
#
# Revision: 1
# Processed by: cddbd v1.5PL3 Copyright (c) Steve Scherf et al.
# Submitted via: CDex 1.50Beta5
#
DISCID=e30f7d0f
DTITLE=Sema - Yashemabeth
DYEAR=1900
DGENRE=R&B
TTITLE0=Sweet Dreams
TTITLE1=The Best That I Can
TTITLE2=Only A Prayer Away
TTITLE3=In Me In You
TTITLE4=Baby You're Mine
TTITLE5=One Summer Night
TTITLE6=Ooh And I Link It
TTITLE7=Love's Desire
TTITLE8=Jermaine ( Yours Truly )
TTITLE9=Peaches And Cream
TTITLE10=Glad You're Here With Me
TTITLE11=Never Miss Your Water
TTITLE12=I'm Gonna Find You
TTITLE13=Link To Have You
TTITLE14=Why'd You Go
EXTD=
EXTT0=
EXTT1=
EXTT2=
EXTT3=
EXTT4=
EXTT5=
EXTT6=
EXTT7=
EXTT8=
EXTT9=
EXTT10=
EXTT11=
EXTT12=
EXTT13=
EXTT14=
PLAYORDER=
